<svg id="visual" viewBox="0 0 960 540" width="960" height="540" xmlns="http://www.w3.org/2000/svg" xmlns:xlink="http://www.w3.org/1999/xlink" version="1.1"><rect x="0" y="0" width="960" height="540" fill="#8e9aab"></rect><defs><linearGradient id="grad1_0" x1="43.8%" y1="0%" x2="100%" y2="100%"><stop offset="14.444444444444446%" stop-color="#8e9aab" stop-opacity="1"></stop><stop offset="85.55555555555554%" stop-color="#8e9aab" stop-opacity="1"></stop></linearGradient></defs><defs><linearGradient id="grad2_0" x1="0%" y1="0%" x2="56.3%" y2="100%"><stop offset="14.444444444444446%" stop-color="#8e9aab" stop-opacity="1"></stop><stop offset="85.55555555555554%" stop-color="#8e9aab" stop-opacity="1"></stop></linearGradient></defs><g transform="translate(960, 0)"><path d="M0 351C-52.5 351.3 -104.9 351.6 -133.2 321.5C-161.4 291.4 -165.5 230.9 -198.7 198.7C-231.8 166.5 -294.1 162.7 -324.3 134.3C-354.5 105.9 -352.8 53 -351 0L0 0Z" fill="#f59e0b"></path></g><g transform="translate(0, 540)"><path d="M0 -351C47.6 -338.7 95.2 -326.3 122.8 -296.6C150.4 -266.8 158 -219.7 193.7 -193.7C229.5 -167.8 293.4 -163.1 324.3 -134.3C355.2 -105.6 353.1 -52.8 351 0L0 0Z" fill="#f59e0b"></path></g></svg>