<svg id="visual" viewBox="0 0 960 540" width="960" height="540" xmlns="http://www.w3.org/2000/svg" xmlns:xlink="http://www.w3.org/1999/xlink" version="1.1"><rect x="0" y="0" width="960" height="540" fill="#1f2937"></rect><defs><linearGradient id="grad1_0" x1="43.8%" y1="100%" x2="100%" y2="0%"><stop offset="14.444444444444446%" stop-color="#1f2937" stop-opacity="1"></stop><stop offset="85.55555555555554%" stop-color="#1f2937" stop-opacity="1"></stop></linearGradient></defs><defs><linearGradient id="grad2_0" x1="0%" y1="100%" x2="56.3%" y2="0%"><stop offset="14.444444444444446%" stop-color="#1f2937" stop-opacity="1"></stop><stop offset="85.55555555555554%" stop-color="#1f2937" stop-opacity="1"></stop></linearGradient></defs><g transform="translate(960, 540)"><path d="M-297 0C-294.6 -39.9 -292.2 -79.7 -274.4 -113.7C-256.6 -147.6 -223.5 -175.6 -190.2 -190.2C-156.9 -204.9 -123.6 -206.2 -91.8 -221.7C-60.1 -237.3 -30.1 -267.2 0 -297L0 0Z" fill="#f97316"></path></g><g transform="translate(0, 0)"><path d="M297 0C297.4 43.1 297.8 86.2 274.4 113.7C251 141.1 203.7 152.8 172.5 172.5C141.4 192.3 126.3 220 100.3 242.1C74.2 264.1 37.1 280.6 0 297L0 0Z" fill="#f97316"></path></g></svg>