<svg id="visual" viewBox="0 0 960 540" width="960" height="540" xmlns="http://www.w3.org/2000/svg" xmlns:xlink="http://www.w3.org/1999/xlink" version="1.1"><rect x="0" y="0" width="960" height="540" fill="#d1d5db"></rect><defs><linearGradient id="grad1_0" x1="43.8%" y1="100%" x2="100%" y2="0%"><stop offset="14.444444444444446%" stop-color="#d1d5db" stop-opacity="1"></stop><stop offset="85.55555555555554%" stop-color="#d1d5db" stop-opacity="1"></stop></linearGradient></defs><defs><linearGradient id="grad2_0" x1="0%" y1="100%" x2="56.3%" y2="0%"><stop offset="14.444444444444446%" stop-color="#d1d5db" stop-opacity="1"></stop><stop offset="85.55555555555554%" stop-color="#d1d5db" stop-opacity="1"></stop></linearGradient></defs><g transform="translate(960, 540)"><path d="M-351 0C-330.6 -31.6 -310.2 -63.2 -296.7 -96.4C-283.3 -129.6 -276.8 -164.4 -256.5 -186.3C-236.1 -208.3 -201.8 -217.3 -176.9 -243.5C-152 -269.7 -136.4 -313.1 -108.5 -333.8C-80.5 -354.6 -40.3 -352.8 0 -351L0 0Z" fill="#f59e0b"></path></g><g transform="translate(0, 0)"><path d="M351 0C348.3 37.7 345.6 75.5 332.9 108.2C320.1 140.8 297.3 168.4 276.7 201C256 233.7 237.6 271.4 206.3 284C175.1 296.6 131.1 284 94.6 291C58 298 29 324.5 0 351L0 0Z" fill="#f59e0b"></path></g></svg>