<svg id="visual" viewBox="0 0 960 540" width="960" height="540" xmlns="http://www.w3.org/2000/svg" xmlns:xlink="http://www.w3.org/1999/xlink" version="1.1"><rect x="0" y="0" width="960" height="540" fill="#d1d5db"></rect><defs><linearGradient id="grad1_0" x1="43.8%" y1="0%" x2="100%" y2="100%"><stop offset="14.444444444444446%" stop-color="#d1d5db" stop-opacity="1"></stop><stop offset="85.55555555555554%" stop-color="#d1d5db" stop-opacity="1"></stop></linearGradient></defs><defs><linearGradient id="grad2_0" x1="0%" y1="0%" x2="56.3%" y2="100%"><stop offset="14.444444444444446%" stop-color="#d1d5db" stop-opacity="1"></stop><stop offset="85.55555555555554%" stop-color="#d1d5db" stop-opacity="1"></stop></linearGradient></defs><g transform="translate(960, 0)"><path d="M0 351C-39.4 350.2 -78.7 349.5 -107.8 331.9C-137 314.4 -155.9 280 -188.7 259.7C-221.5 239.4 -268.1 233.1 -284 206.3C-299.8 179.6 -285 132.4 -291 94.6C-297.1 56.8 -324 28.4 -351 0L0 0Z" fill="#f59e0b"></path></g><g transform="translate(0, 540)"><path d="M0 -351C32.2 -333.7 64.3 -316.3 100.1 -308.1C135.9 -300 175.4 -301 206.3 -284C237.2 -266.9 259.6 -231.8 271.8 -197.5C284.1 -163.1 286.2 -129.5 297.7 -96.7C309.2 -63.9 330.1 -32 351 0L0 0Z" fill="#f59e0b"></path></g></svg>