<?xml version="1.0" encoding="UTF-8" standalone="no" ?>
<!DOCTYPE svg PUBLIC "-//W3C//DTD SVG 1.1//EN" "http://www.w3.org/Graphics/SVG/1.1/DTD/svg11.dtd">
<svg xmlns="http://www.w3.org/2000/svg" xmlns:xlink="http://www.w3.org/1999/xlink" version="1.1" width="24" height="18" viewBox="0 0 640 480" xml:space="preserve">
<desc>Created with Fabric.js 3.6.6</desc>
<defs>
</defs>
<g transform="matrix(30.16 0 0 30.16 322.68 241.8)"  >
<linearGradient id="SVGID_8" gradientUnits="userSpaceOnUse" gradientTransform="matrix(1 0 0 1 3 5)"  x1="2.6999999999999997" y1="11.9" x2="15.299999999999999" y2="2.1">
<stop offset="37.098%" style="stop-color:rgb(220,38,38);stop-opacity: 1"/>
<stop offset="100%" style="stop-color:rgb(245,158,11);stop-opacity: 1"/>
</linearGradient>
<path style="stroke: none; stroke-width: 1; stroke-dasharray: none; stroke-linecap: butt; stroke-dashoffset: 0; stroke-linejoin: miter; stroke-miterlimit: 4; fill: url(#SVGID_8); fill-rule: evenodd; opacity: 1;"  transform=" translate(-12, -12)" d="M 4 5 C 3.44772 5 3 5.44772 3 6 C 3 6.55228 3.44772 7 4 7 H 20 C 20.5523 7 21 6.55228 21 6 C 21 5.44772 20.5523 5 20 5 H 4 Z M 7 12 C 7 11.4477 7.44772 11 8 11 H 20 C 20.5523 11 21 11.4477 21 12 C 21 12.5523 20.5523 13 20 13 H 8 C 7.44772 13 7 12.5523 7 12 Z M 13 18 C 13 17.4477 13.4477 17 14 17 H 20 C 20.5523 17 21 17.4477 21 18 C 21 18.5523 20.5523 19 20 19 H 14 C 13.4477 19 13 18.5523 13 18 Z" stroke-linecap="round" />
</g>
</svg>